<?xml version="1.0" standalone="no"?>
<!DOCTYPE svg PUBLIC "-//W3C//DTD SVG 20010904//EN"
 "http://www.w3.org/TR/2001/REC-SVG-20010904/DTD/svg10.dtd">
<svg version="1.0" xmlns="http://www.w3.org/2000/svg"
 width="512.000000pt" height="512.000000pt" viewBox="0 0 512.000000 512.000000"
 preserveAspectRatio="xMidYMid meet">
<metadata>
Created by potrace 1.11, written by Peter Selinger 2001-2013
</metadata>
<g transform="translate(0.000000,512.000000) scale(0.100000,-0.100000)"
fill="#000000" stroke="none">
<path d="M2455 5103 c-64 -23 -106 -53 -147 -106 -45 -57 -53 -73 -67 -135
-34 -140 40 -291 177 -361 38 -19 38 -20 40 -80 1 -52 -1 -61 -16 -61 -63 -2
-262 -45 -304 -67 -16 -7 -28 -11 -28 -9 0 9 -147 -62 -217 -104 -37 -23 -92
-60 -121 -83 l-53 -40 -39 39 -39 39 15 45 c11 31 15 66 11 111 -17 246 -284
372 -489 231 -86 -59 -135 -170 -125 -281 17 -190 212 -320 397 -265 l49 14
35 -32 c20 -18 36 -37 36 -42 0 -5 -22 -38 -49 -75 -142 -195 -228 -419 -250
-657 -1 -6 -25 -10 -61 -10 l-59 1 -30 46 c-88 139 -269 175 -403 80 -105 -75
-144 -231 -87 -346 100 -201 370 -215 490 -26 l29 46 60 1 c48 0 60 -3 61 -15
0 -9 2 -25 4 -36 11 -59 15 -84 21 -119 22 -147 129 -376 247 -527 15 -20 27
-40 27 -45 -1 -5 -32 -40 -70 -78 l-69 -69 -43 12 c-70 20 -130 20 -194 0
-216 -66 -287 -343 -131 -507 151 -158 411 -115 507 84 28 58 34 178 11 232
l-14 34 76 76 76 75 53 -40 c116 -90 245 -157 393 -206 84 -28 221 -57 267
-57 27 0 27 -1 27 -64 -1 -60 -3 -65 -27 -75 -39 -16 -99 -77 -123 -122 -71
-140 -15 -309 126 -381 57 -29 153 -35 212 -13 72 27 127 77 161 145 26 52 30
69 27 127 -1 38 -9 82 -16 98 -22 50 -71 107 -118 137 l-45 28 2 57 c1 31 3
57 5 59 1 1 25 4 52 8 235 28 430 111 666 285 17 12 23 9 54 -22 32 -32 34
-38 24 -64 -46 -120 -13 -255 85 -341 49 -43 81 -58 151 -73 149 -30 307 68
351 218 43 149 -29 304 -171 369 -67 31 -168 36 -228 11 -35 -15 -35 -15 -71
22 l-36 37 48 64 c60 81 103 151 137 226 27 58 74 184 80 214 2 8 10 50 19 92
9 42 16 91 16 108 0 16 3 30 8 31 4 1 32 2 63 3 55 2 57 2 75 -32 70 -130 235
-183 367 -118 208 101 211 400 4 500 -130 63 -279 22 -358 -98 l-34 -51 -57
-1 c-64 -1 -63 -3 -73 81 -12 99 -44 216 -87 317 -22 53 -68 82 -115 73 -26
-4 -32 1 -61 50 -18 30 -49 76 -69 101 -34 45 -35 49 -20 73 32 55 -2 133 -63
146 -16 4 -43 0 -64 -9 -36 -15 -37 -15 -82 19 -24 19 -69 49 -99 67 -52 31
-55 35 -53 71 2 52 -27 87 -96 115 -70 28 -231 68 -308 77 -56 6 -56 6 -60 43
-6 70 0 87 38 101 57 21 137 107 163 176 54 141 5 303 -115 386 -23 16 -49 29
-56 29 -8 0 -19 5 -24 10 -6 6 -44 13 -85 15 -56 4 -86 1 -124 -12z"/>
<path d="M3814 4689 c-151 -28 -256 -153 -256 -305 0 -159 131 -299 289 -308
215 -13 376 187 317 394 -44 152 -196 248 -350 219z"/>
<path d="M341 904 c-211 -57 -352 -255 -337 -473 6 -87 7 -92 48 -178 51 -108
161 -200 283 -236 72 -21 196 -16 266 11 69 27 135 83 144 120 12 56 -27 111
-84 119 -33 5 -48 0 -87 -26 -74 -49 -152 -53 -231 -12 -90 46 -137 124 -137
231 -1 82 17 128 70 184 36 38 120 76 170 76 38 0 127 -24 149 -40 23 -17 79
-2 107 29 47 53 31 119 -39 158 -90 50 -221 65 -322 37z"/>
<path d="M1208 901 c-100 -32 -161 -88 -211 -190 -31 -65 -31 -65 -30 -235 0
-94 3 -186 7 -205 29 -144 167 -259 317 -267 152 -8 272 66 338 206 25 53 26
61 26 250 0 190 -1 197 -26 251 -77 163 -255 244 -421 190z m185 -205 c13 -9
33 -33 45 -55 20 -34 22 -53 22 -172 0 -74 -4 -149 -10 -168 -27 -94 -153
-129 -231 -64 -45 38 -52 64 -54 203 -3 139 5 184 37 225 42 54 133 68 191 31z"/>
<path d="M1834 909 c-25 -13 -54 -59 -54 -88 0 -11 58 -188 130 -392 146 -421
148 -424 231 -424 84 0 89 9 228 427 67 200 121 374 121 387 0 30 -26 77 -46
85 -50 19 -82 17 -112 -9 -26 -22 -41 -59 -109 -265 -43 -132 -81 -240 -84
-240 -3 0 -15 28 -27 63 -23 69 -136 393 -146 418 -9 21 -59 49 -88 48 -12 0
-32 -5 -44 -10z"/>
<path d="M2743 908 c-50 -24 -53 -47 -53 -457 l0 -381 29 -32 c25 -28 36 -33
75 -33 35 0 50 5 68 25 l23 25 3 389 c2 282 -1 398 -9 419 -20 48 -85 70 -136
45z"/>
<path d="M3128 891 l-33 -29 -3 -396 -3 -395 30 -33 29 -33 149 1 c140 0 151
2 207 28 70 33 146 108 182 177 95 189 68 455 -62 593 -82 87 -157 113 -336
115 l-127 2 -33 -30z m292 -183 c85 -31 135 -156 119 -299 -14 -123 -81 -198
-187 -206 l-59 -5 -2 262 -2 261 53 -2 c29 -1 64 -6 78 -11z"/>
<path d="M3979 892 c-63 -57 -32 -155 53 -168 l38 -7 0 -319 c0 -281 2 -323
17 -348 27 -47 77 -61 128 -38 54 24 55 35 55 448 0 413 -1 424 -55 448 -14 7
-66 12 -115 12 -84 0 -92 -2 -121 -28z"/>
<path d="M4765 910 c-210 -31 -325 -272 -219 -457 46 -79 159 -153 235 -153
30 0 23 -14 -42 -81 -34 -35 -65 -74 -70 -88 -23 -60 30 -131 94 -127 44 3 82
31 151 108 164 185 248 477 177 621 -61 124 -194 196 -326 177z m105 -215 c28
-19 43 -45 47 -85 4 -35 1 -44 -30 -75 -29 -29 -42 -35 -77 -35 -34 0 -47 6
-71 31 -29 31 -33 42 -31 89 4 73 99 117 162 75z"/>
</g>
</svg>
